HIERARCHY
ROOT Hips
{
  OFFSET 0.0273292 -0.436096 0.279869
  CHANNELS 6 Xposition Yposition Zposition Zrotation Xrotation Yrotation
  JOINT LHipJoint
  {
    OFFSET 0 0 0
    CHANNELS 6 Xposition Yposition Zposition Zrotation Xrotation Yrotation
    JOINT LeftUpLeg
    {
      OFFSET 1.36306 -1.79463 0
      CHANNELS 6 Xposition Yposition Zposition Zrotation Xrotation Yrotation
      JOINT LeftLeg
      {
        OFFSET 2.44807 -6.72613 0.000295034
        CHANNELS 6 Xposition Yposition Zposition Zrotation Xrotation Yrotation
        JOINT LeftFoot
        {
          OFFSET 2.5622 -7.03959 3.59965e-05
          CHANNELS 6 Xposition Yposition Zposition Zrotation Xrotation Yrotation
          JOINT LeftToeBase
          {
            OFFSET 0.15764 -0.43311 2.32255
            CHANNELS 6 Xposition Yposition Zposition Zrotation Xrotation Yrotation
            End Site
            {
              OFFSET 0 0 0
            }
          }
        }
      }
    }
  }
  JOINT RHipJoint
  {
    OFFSET 0 0 0
    CHANNELS 6 Xposition Yposition Zposition Zrotation Xrotation Yrotation
    JOINT RightUpLeg
    {
      OFFSET -1.30552 -1.79463 0
      CHANNELS 6 Xposition Yposition Zposition Zrotation Xrotation Yrotation
      JOINT RightLeg
      {
        OFFSET -2.54234 -6.98562 -0.000396375
        CHANNELS 6 Xposition Yposition Zposition Zrotation Xrotation Yrotation
        JOINT RightFoot
        {
          OFFSET -2.56826 -7.05623 -4.47982e-05
          CHANNELS 6 Xposition Yposition Zposition Zrotation Xrotation Yrotation
          JOINT RightToeBase
          {
            OFFSET -0.16473 -0.45259 2.36315
            CHANNELS 6 Xposition Yposition Zposition Zrotation Xrotation Yrotation
            End Site
            {
              OFFSET 0 0 0
            }
          }
        }
      }
    }
  }
  JOINT LowerBack
  {
    OFFSET 0 0 0
    CHANNELS 6 Xposition Yposition Zposition Zrotation Xrotation Yrotation
    JOINT Spine
    {
      OFFSET 0.0282699 2.03559 0
      CHANNELS 6 Xposition Yposition Zposition Zrotation Xrotation Yrotation
      JOINT Spine1
      {
        OFFSET 0.05672 2.04885 -0.04275
        CHANNELS 6 Xposition Yposition Zposition Zrotation Xrotation Yrotation
        JOINT Neck
        {
          OFFSET 0 0 0
          CHANNELS 6 Xposition Yposition Zposition Zrotation Xrotation Yrotation
          JOINT Neck1
          {
            OFFSET -0.05417 1.74624 0.17202
            CHANNELS 6 Xposition Yposition Zposition Zrotation Xrotation Yrotation
            JOINT Head
            {
              OFFSET 0.10407 1.76136 -0.12397
              CHANNELS 6 Xposition Yposition Zposition Zrotation Xrotation Yrotation
              End Site
              {
                OFFSET 0 0 0
              }
            }
          }
        }
        JOINT LeftShoulder
        {
          OFFSET 0 0 0
          CHANNELS 6 Xposition Yposition Zposition Zrotation Xrotation Yrotation
          JOINT LeftArm
          {
            OFFSET 3.36241 1.20089 -0.311211
            CHANNELS 6 Xposition Yposition Zposition Zrotation Xrotation Yrotation
            JOINT LeftForeArm
            {
              OFFSET 4.983 0.000197398 0.000166057
              CHANNELS 6 Xposition Yposition Zposition Zrotation Xrotation Yrotation
              JOINT LeftHand
              {
                OFFSET 3.48356 0 1.87849e-05
                CHANNELS 6 Xposition Yposition Zposition Zrotation Xrotation Yrotation
                JOINT LeftFingerBase
                {
                  OFFSET 0 0 0
                  CHANNELS 6 Xposition Yposition Zposition Zrotation Xrotation Yrotation
                  JOINT LeftHandIndex1
                  {
                    OFFSET 0.71526 0 0
                    CHANNELS 6 Xposition Yposition Zposition Zrotation Xrotation Yrotation
                    End Site
                    {
                      OFFSET 0 0 0
                    }
                  }
                }
                JOINT LThumb
                {
                  OFFSET 0 0 0
                  CHANNELS 6 Xposition Yposition Zposition Zrotation Xrotation Yrotation
                  End Site
                  {
                    OFFSET 0 0 0
                  }
                }
              }
            }
          }
        }
        JOINT RightShoulder
        {
          OFFSET 0 0 0
          CHANNELS 6 Xposition Yposition Zposition Zrotation Xrotation Yrotation
          JOINT RightArm
          {
            OFFSET -3.1366 1.37405 -0.404651
            CHANNELS 6 Xposition Yposition Zposition Zrotation Xrotation Yrotation
            JOINT RightForeArm
            {
              OFFSET -5.2419 -5.8808e-05 -0.000165864
              CHANNELS 6 Xposition Yposition Zposition Zrotation Xrotation Yrotation
              JOINT RightHand
              {
                OFFSET -3.44417 0 -2.00002e-05
                CHANNELS 6 Xposition Yposition Zposition Zrotation Xrotation Yrotation
                JOINT RightFingerBase
                {
                  OFFSET 0 0 0
                  CHANNELS 6 Xposition Yposition Zposition Zrotation Xrotation Yrotation
                  JOINT RightHandIndex1
                  {
                    OFFSET -0.62253 0 0
                    CHANNELS 6 Xposition Yposition Zposition Zrotation Xrotation Yrotation
                    End Site
                    {
                      OFFSET 0 0 0
                    }
                  }
                }
                JOINT RThumb
                {
                  OFFSET 0 0 0
                  CHANNELS 6 Xposition Yposition Zposition Zrotation Xrotation Yrotation
                  End Site
                  {
                    OFFSET 0 0 0
                  }
                }
              }
            }
          }
        }
      }
    }
  }
}
MOTION
Frames:	5
Frame Time:	0.00833333
-0.0148574 1.08249 -0.174845 -4.26027 -4.41458 10.8405 0 0 0 -9.93923e-17 0 -1.59028e-15 1.36306 -1.79463 9.73541e-08 -38.0149 -62.8207 -39.2656 2.44799 -6.72617 -0.000846441 -102.081 66.2017 123.01 2.5622 -7.03959 2.64472e-05 -21.3032 -51.8196 -32.9476 0.15764 -0.43311 2.32255 2.98177e-16 6.36111e-15 -8.94531e-16 0 0 0 -9.93923e-17 0 -1.59028e-15 -1.30552 -1.79463 9.73541e-08 39.143 -62.7108 39.7238 -2.54233 -6.98561 -0.00138019 106.304 64.8957 -127.802 -2.56826 -7.05623 8.14803e-06 22.382 -53.847 34.9508 -0.16473 -0.45259 2.36315 -3.18055e-15 0 3.18055e-15 0 0 0 -9.93923e-17 0 -1.59028e-15 0.0282702 2.03559 -3.75783e-09 3.3978 -3.41118 -10.0179 0.05672 2.04885 -0.04275 2.48481e-17 1.59028e-15 1.98785e-16 0 0 0 -2.48481e-17 1.59028e-15 -0 -0.05417 1.74624 0.17202 0.0299411 7.99918 -37.2815 0.10407 1.76136 -0.12397 9.93923e-17 9.93923e-17 -0 0 0 0 -2.48481e-17 1.59028e-15 -0 3.36241 1.20089 -0.31121 -68.0762 -45.4897 -38.1767 4.983 -9.04896e-06 -7.16678e-05 -0.0778707 -0.878305 -10.0994 3.48356 -9.45657e-07 -9.97728e-06 -6.36111e-15 0 0.000181033 0 0 0 6.36111e-15 0 -0 0.71526 -8.88178e-16 -8.88178e-16 -9.54166e-15 0 -0 0 0 0 6.36111e-15 0 -0 0 0 0 -2.48481e-17 1.59028e-15 -0 -3.1366 1.37405 -0.40465 64.0448 -42.4817 53.9644 -5.2419 0.000137617 -0.000588533 0.199069 -1.40102 16.2382 -3.44417 8.1605e-07 -9.14824e-06 4.50215e-21 1.59028e-15 -0.000162207 0 0 0 -6.36111e-15 2.38542e-15 -7.95139e-16 -0.62253 0 1.77636e-15 3.18055e-15 3.97569e-15 7.95139e-16 0 0 0 -6.36111e-15 2.38542e-15 -7.95139e-16 
-0.0254234 1.0635 -0.230246 -4.26416 -4.39435 10.8402 0 0 0 -1.98785e-16 -7.95139e-16 -1.59028e-15 1.36306 -1.79463 9.73541e-08 -48.6416 -67.7532 -50.9507 2.44799 -6.72617 -0.000846441 -102.18 66.1743 122.991 2.5622 -7.03959 2.64472e-05 -17.4069 -47.5883 -28.1076 0.15764 -0.43311 2.32255 3.23025e-15 -6.36111e-15 -4.27387e-15 0 0 0 -1.98785e-16 -7.95139e-16 -1.59028e-15 -1.30552 -1.79463 9.73541e-08 49.9347 -67.5798 51.5846 -2.54233 -6.98561 -0.00138019 106.388 64.8665 -127.765 -2.56826 -7.05623 8.14803e-06 18.0527 -49.6547 29.709 -0.16473 -0.45259 2.36315 -1.59028e-15 0 -0 0 0 0 -1.98785e-16 -7.95139e-16 -1.59028e-15 0.0282702 2.03559 -3.75783e-09 3.39956 -3.40124 -10.0178 0.05672 2.04885 -0.04275 -4.96962e-17 0 -5.96354e-16 0 0 0 2.48481e-17 -7.95139e-16 -1.98785e-16 -0.05417 1.74624 0.17202 0.0302395 7.9677 -37.2401 0.10407 1.76136 -0.12397 2.98177e-16 -9.93923e-17 -0 0 0 0 2.48481e-17 -7.95139e-16 -1.98785e-16 3.36241 1.20089 -0.31121 -68.4595 -45.2439 -39.1151 4.983 -9.04896e-06 -7.16678e-05 -0.0778429 -0.878302 -10.0998 3.48356 -9.45657e-07 -9.97728e-06 -9.54166e-15 0 0.000185266 0 0 0 3.18055e-15 3.18055e-15 -0 0.71526 0 0 3.18055e-15 0 3.18055e-15 0 0 0 3.18055e-15 3.18055e-15 -0 0 0 0 2.48481e-17 -7.95139e-16 -1.98785e-16 -3.1366 1.37405 -0.40465 64.2879 -41.9224 54.8348 -5.2419 0.000137617 -0.000588533 0.20574 -1.4256 16.5299 -3.44417 8.1605e-07 -9.14824e-06 6.3611e-15 -1.59028e-15 -0.000167988 0 0 0 -3.18055e-15 1.59028e-15 7.95139e-16 -0.62253 8.88178e-16 8.88178e-16 -3.18055e-15 7.95139e-16 -0 0 0 0 -3.18055e-15 1.59028e-15 7.95139e-16 
-0.0299285 1.05487 -0.258165 -4.26886 -4.36984 10.8398 0 0 0 1.59028e-15 7.95139e-16 -4.77083e-15 1.36306 -1.79463 9.73541e-08 -54.7967 -69.45 -57.5529 2.44799 -6.72617 -0.000846441 -102.236 66.1589 122.988 2.5622 -7.03959 2.64472e-05 -15.7906 -45.3087 -25.978 0.15764 -0.43311 2.32255 -2.15247e-15 3.18055e-15 5.24916e-16 0 0 0 1.59028e-15 7.95139e-16 -4.77083e-15 -1.30552 -1.79463 9.73541e-08 56.1197 -69.2484 58.218 -2.54233 -6.98561 -0.00138019 106.429 64.8521 -127.745 -2.56826 -7.05623 8.14803e-06 16.261 -47.391 27.4223 -0.16473 -0.45259 2.36315 4.77083e-15 3.18055e-15 -3.18055e-15 0 0 0 1.59028e-15 7.95139e-16 -4.77083e-15 0.0282702 2.03559 -3.75783e-09 3.40167 -3.38925 -10.0177 0.05672 2.04885 -0.04275 -2.48481e-17 1.59028e-15 -0 0 0 0 -2.48481e-17 1.59028e-15 -0 -0.05417 1.74624 0.17202 0.0298424 7.92949 -37.1917 0.10407 1.76136 -0.12397 -9.93923e-17 -1.98785e-16 6.36111e-15 0 0 0 -2.48481e-17 1.59028e-15 -0 3.36241 1.20089 -0.31121 -68.8002 -45.2733 -39.6586 4.983 -9.04896e-06 -7.16678e-05 -0.0777893 -0.878299 -10.1007 3.48356 -9.45657e-07 -9.97728e-06 1.90833e-14 3.18055e-15 0.000194022 0 0 0 6.36111e-15 3.18055e-15 -3.18055e-15 0.71526 8.88178e-16 0 3.18055e-15 3.18055e-15 3.18055e-15 0 0 0 6.36111e-15 3.18055e-15 -3.18055e-15 0 0 0 -2.48481e-17 1.59028e-15 -0 -3.1366 1.37405 -0.40465 64.5965 -41.7711 55.3605 -5.2419 0.000137617 -0.000588533 0.214461 -1.45512 16.8806 -3.44417 8.1605e-07 -9.14824e-06 6.36111e-15 -3.97569e-16 -0.000172434 0 0 0 6.36111e-15 7.95139e-16 -2.38542e-15 -0.62253 -8.88178e-16 0 9.54166e-15 -3.97569e-16 7.95139e-16 0 0 0 6.36111e-15 7.95139e-16 -2.38542e-15 
-0.0295391 1.05574 -0.264039 -4.27435 -4.34124 10.8394 0 0 0 -3.97569e-16 7.95139e-16 -0 1.36306 -1.79463 9.73541e-08 -54.3069 -69.3022 -57.0295 2.44799 -6.72617 -0.000846441 -102.252 66.1542 122.998 2.5622 -7.03959 2.64472e-05 -15.5694 -45.0003 -25.69 0.15764 -0.43311 2.32255 -3.35449e-16 -3.18055e-15 -3.35449e-15 0 0 0 -3.97569e-16 7.95139e-16 -0 -1.30552 -1.79463 9.73541e-08 55.5993 -69.1156 57.6594 -2.54233 -6.98561 -0.00138019 106.433 64.8507 -127.742 -2.56826 -7.05623 8.14803e-06 16.0169 -47.0912 27.1136 -0.16473 -0.45259 2.36315 3.53113e-31 6.36111e-15 -3.18055e-15 0 0 0 -3.97569e-16 7.95139e-16 -0 0.0282702 2.03559 -3.75783e-09 3.40414 -3.37533 -10.0176 0.05672 2.04885 -0.04275 4.96962e-17 1.59028e-15 -3.97569e-16 0 0 0 4.96962e-17 1.59028e-15 -0 -0.05417 1.74624 0.17202 0.0287029 7.88481 -37.1367 0.10407 1.76136 -0.12397 -2.98177e-16 0 -0 0 0 0 4.96962e-17 1.59028e-15 -0 3.36241 1.20089 -0.31121 -68.4601 -46.5382 -37.9282 4.983 -9.04896e-06 -7.16678e-05 -0.101375 -0.973062 -11.2832 3.48356 -9.45657e-07 -9.97728e-06 9.54167e-15 -1.59028e-15 0.000214549 0 0 0 -3.18055e-15 1.59028e-15 -0 0.71526 -8.88178e-16 8.88178e-16 -3.18055e-15 -1.59028e-15 1.59028e-15 0 0 0 -3.18055e-15 1.59028e-15 -0 0 0 0 4.96962e-17 1.59028e-15 -0 -3.1366 1.37405 -0.40465 64.8128 -43.9465 53.6858 -5.2419 0.000137617 -0.000588533 0.226053 -1.48941 17.2923 -3.44417 8.1605e-07 -9.14824e-06 6.3611e-15 -3.18055e-15 -0.000174278 0 0 0 -3.18055e-15 1.59028e-15 2.38542e-15 -0.62253 -8.88178e-16 0 -3.18055e-15 3.18055e-15 7.95139e-16 0 0 0 -3.18055e-15 1.59028e-15 2.38542e-15 
-0.0284035 1.05811 -0.267055 -4.28083 -4.30751 10.8389 0 0 0 3.97569e-16 7.95139e-16 -3.18055e-15 1.36306 -1.79463 9.73541e-08 -52.8431 -68.8912 -55.4626 2.44799 -6.72617 -0.000846441 -102.266 66.1503 123.009 2.5622 -7.03959 2.64472e-05 -15.4803 -44.8738 -25.5735 0.15764 -0.43311 2.32255 7.1314e-15 6.36111e-15 7.95139e-16 0 0 0 3.97569e-16 7.95139e-16 -3.18055e-15 -1.30552 -1.79463 9.73541e-08 54.1106 -68.7141 56.0599 -2.54233 -6.98561 -0.00138019 106.434 64.8502 -127.741 -2.56826 -7.05623 8.14803e-06 15.9174 -46.9668 26.9876 -0.16473 -0.45259 2.36315 3.18055e-15 -6.36111e-15 3.18055e-15 0 0 0 3.97569e-16 7.95139e-16 -3.18055e-15 0.0282702 2.03559 -3.75783e-09 3.40704 -3.35894 -10.0174 0.05672 2.04885 -0.04275 2.75869e-33 7.95139e-16 -1.98785e-16 0 0 0 0 7.95139e-16 -0 -0.05417 1.74624 0.17202 0.0273283 7.83185 -37.0739 0.10407 1.76136 -0.12397 -1.98785e-16 0 -1.27222e-14 0 0 0 0 7.95139e-16 -0 3.36241 1.20089 -0.31121 -66.9288 -49.1508 -33.3923 4.983 -9.04896e-06 -7.16678e-05 -0.166424 -1.21743 -14.2725 3.48356 -9.45657e-07 -9.97728e-06 3.18056e-15 -1.59028e-15 0.000244558 0 0 0 -0 -6.36111e-15 -0 0.71526 0 -8.88178e-16 6.36111e-15 -4.77083e-15 -0 0 0 0 -0 -6.36111e-15 -0 0 0 0 0 7.95139e-16 -0 -3.1366 1.37405 -0.40465 64.4273 -48.8852 49.0864 -5.2419 0.000137617 -0.000588533 0.240697 -1.52932 17.7755 -3.44417 8.1605e-07 -9.14824e-06 6.36112e-15 3.97569e-15 -0.000174878 0 0 0 3.18055e-15 1.59028e-15 -7.95139e-16 -0.62253 -8.88178e-16 0 1.90833e-14 -1.59028e-15 7.95139e-16 0 0 0 3.18055e-15 1.59028e-15 -7.95139e-16 
